<svg xmlns="http://www.w3.org/2000/svg" viewBox="0 0 760 392" font-family="Montserrat,Segoe UI,Arial,sans-serif" role="img" aria-label="Tendencias priorizadas para PAN-CBA (impacto × aplicabilidad, máx. 25)"><text x="0" y="18" font-size="15" font-weight="800" fill="#404040">Tendencias priorizadas para PAN-CBA (impacto × aplicabilidad, máx. 25)</text><line x1="230.0" y1="40" x2="230.0" y2="346" stroke="#E6E6E6"/><line x1="345.0" y1="40" x2="345.0" y2="346" stroke="#E6E6E6"/><line x1="460.0" y1="40" x2="460.0" y2="346" stroke="#E6E6E6"/><line x1="575.0" y1="40" x2="575.0" y2="346" stroke="#E6E6E6"/><line x1="690.0" y1="40" x2="690.0" y2="346" stroke="#E6E6E6"/><text x="220" y="59" text-anchor="end" font-size="12.5" fill="#404040">Horneado a demanda + pronóstico</text><text x="220" y="71" text-anchor="end" font-size="10" fill="#7a7a7a">impacto 5 × aplicabilidad 5</text><g><title>Horneado a demanda + pronóstico: 25</title><rect x="230.0" y="50" width="410.7" height="16" rx="4" fill="#B12028"/></g><text x="646.7" y="62" font-size="12" font-weight="700" fill="#404040">25</text><text x="220" y="89" text-anchor="end" font-size="12.5" fill="#404040">Precio de entrada y porciones chicas</text><text x="220" y="101" text-anchor="end" font-size="10" fill="#7a7a7a">5 × 5</text><g><title>Precio de entrada y porciones chicas: 25</title><rect x="230.0" y="80" width="410.7" height="16" rx="4" fill="#B12028"/></g><text x="646.7" y="92" font-size="12" font-weight="700" fill="#404040">25</text><text x="220" y="119" text-anchor="end" font-size="12.5" fill="#404040">QR y billeteras como fidelización</text><text x="220" y="131" text-anchor="end" font-size="10" fill="#7a7a7a">4 × 5</text><g><title>QR y billeteras como fidelización: 20</title><rect x="230.0" y="110" width="328.6" height="16" rx="4" fill="#B12028"/></g><text x="564.6" y="122" font-size="12" font-weight="700" fill="#404040">20</text><text x="220" y="149" text-anchor="end" font-size="12.5" fill="#404040">Café de calidad estandarizado</text><text x="220" y="161" text-anchor="end" font-size="10" fill="#7a7a7a">5 × 4</text><g><title>Café de calidad estandarizado: 20</title><rect x="230.0" y="140" width="328.6" height="16" rx="4" fill="#B12028"/></g><text x="564.6" y="152" font-size="12" font-weight="700" fill="#404040">20</text><text x="220" y="179" text-anchor="end" font-size="12.5" fill="#404040">Delivery de medialunas (domingo)</text><text x="220" y="191" text-anchor="end" font-size="10" fill="#7a7a7a">4 × 4</text><g><title>Delivery de medialunas (domingo): 16</title><rect x="230.0" y="170" width="262.9" height="16" rx="4" fill="#B12028"/></g><text x="498.9" y="182" font-size="12" font-weight="700" fill="#404040">16</text><text x="220" y="209" text-anchor="end" font-size="12.5" fill="#404040">Masa madre y relato natural</text><text x="220" y="221" text-anchor="end" font-size="10" fill="#7a7a7a">4 × 4</text><g><title>Masa madre y relato natural: 16</title><rect x="230.0" y="200" width="262.9" height="16" rx="4" fill="#B12028"/></g><text x="498.9" y="212" font-size="12" font-weight="700" fill="#404040">16</text><text x="220" y="239" text-anchor="end" font-size="12.5" fill="#404040">Producto emblema (hero)</text><text x="220" y="251" text-anchor="end" font-size="10" fill="#7a7a7a">4 × 4</text><g><title>Producto emblema (hero): 16</title><rect x="230.0" y="230" width="262.9" height="16" rx="4" fill="#B12028"/></g><text x="498.9" y="242" font-size="12" font-weight="700" fill="#404040">16</text><text x="220" y="269" text-anchor="end" font-size="12.5" fill="#404040">Cheaf / anti-desperdicio</text><text x="220" y="281" text-anchor="end" font-size="10" fill="#7a7a7a">3 × 5</text><g><title>Cheaf / anti-desperdicio: 15</title><rect x="230.0" y="260" width="246.4" height="16" rx="4" fill="#B12028"/></g><text x="482.4" y="272" font-size="12" font-weight="700" fill="#404040">15</text><text x="220" y="299" text-anchor="end" font-size="12.5" fill="#404040">Suscripción de café</text><text x="220" y="311" text-anchor="end" font-size="10" fill="#7a7a7a">4 × 3</text><g><title>Suscripción de café: 12</title><rect x="230.0" y="290" width="197.1" height="16" rx="4" fill="#B12028"/></g><text x="433.1" y="302" font-size="12" font-weight="700" fill="#404040">12</text><text x="220" y="329" text-anchor="end" font-size="12.5" fill="#404040">Saludable y sin TACC envasado</text><text x="220" y="341" text-anchor="end" font-size="10" fill="#7a7a7a">3 × 3</text><g><title>Saludable y sin TACC envasado: 9</title><rect x="230.0" y="320" width="147.9" height="16" rx="4" fill="#B12028"/></g><text x="383.9" y="332" font-size="12" font-weight="700" fill="#404040">9</text><text x="0" y="382" font-size="10.5" fill="#7a7a7a">Puntajes = [INTERPRETACIÓN] a partir de I003/I004 (fuentes F800–F860).</text></svg>